<svg xmlns="http://www.w3.org/2000/svg" viewBox="0 0 40 40"><defs><style>.cls-1{fill:#fff;}</style></defs><title>cassling-icon-white</title><g id="CQ_Secret" data-name="CQ Secret"><path class="cls-1" d="M32,26.88c-1.38,5-7.2,10-13.88,12.29l.49-.07c9.09-1.46,17.94-8,19.76-14.71S34.28,13.51,25.18,15a29.46,29.46,0,0,0-14.43,6.88,26.41,26.41,0,0,1,9.33-3.48C28.3,17.05,33.64,20.86,32,26.88Z"/><path class="cls-1" d="M16.92,27.89c-7.27-.31-11-5.12-8.38-11,2.28-5.11,8.59-9.41,15.13-10.68h-.46c-8.57,0-18,5.48-21,12.24s1.5,12.24,10.07,12.24A22.1,22.1,0,0,0,16,30.32Z"/><path class="cls-1" d="M20.92,29a26.85,26.85,0,0,0,5.92-3.16,24.05,24.05,0,0,1-5.25,1.71Z"/><path class="cls-1" d="M23.21,18.5a19.55,19.55,0,0,0-2.35.17l-7,18.41,3.55-1.43,7.83-17A18.13,18.13,0,0,0,23.21,18.5Z"/><path class="cls-1" d="M25.12,14.58c.72-.12,1.41-.19,2.1-.24L33.44.83,26.66,3.44,22.17,15.23A27.25,27.25,0,0,1,25.12,14.58Z"/></g></svg>