<svg xmlns="http://www.w3.org/2000/svg" viewBox="0 0 175 45"><defs><style>.cls-1{fill:#fff;}</style></defs><title>cassling-logo-white</title><g id="CQ_Secret" data-name="CQ Secret"><path class="cls-1" d="M65.58,10.23v3.28a7.69,7.69,0,0,0-5-2,6.36,6.36,0,0,0-4.77,2,6.92,6.92,0,0,0-2,5,6.74,6.74,0,0,0,2,4.89,6.48,6.48,0,0,0,4.79,2,5.88,5.88,0,0,0,2.49-.48,7.29,7.29,0,0,0,1.18-.64,13.78,13.78,0,0,0,1.29-1v3.35a9.86,9.86,0,0,1-5,1.35,9.44,9.44,0,0,1-9.51-9.44,9.45,9.45,0,0,1,2.33-6.27,9.23,9.23,0,0,1,7.4-3.37A9.43,9.43,0,0,1,65.58,10.23Z"/><path class="cls-1" d="M80.33,23.17H72.46l-2,4.47h-3l9.1-19.55L85.3,27.64h-3ZM79.2,20.56l-2.73-6.25-2.85,6.25Z"/><path class="cls-1" d="M98,12l-2.25,1.34a3.86,3.86,0,0,0-1.2-1.43A2.77,2.77,0,0,0,93,11.5a2.88,2.88,0,0,0-1.92.65,2,2,0,0,0-.76,1.62c0,.9.66,1.63,2,2.17l1.83.76a7.76,7.76,0,0,1,3.28,2.21,5,5,0,0,1,1,3.2,5.61,5.61,0,0,1-1.7,4.19A5.75,5.75,0,0,1,92.56,28a5.64,5.64,0,0,1-4-1.42,6.61,6.61,0,0,1-1.92-4l2.81-.61a4.77,4.77,0,0,0,.67,2.23,3.16,3.16,0,0,0,4.66.33,3,3,0,0,0,.86-2.21,3.1,3.1,0,0,0-.15-1,2.6,2.6,0,0,0-.47-.82,3.79,3.79,0,0,0-.81-.7,8.18,8.18,0,0,0-1.19-.63l-1.78-.74q-3.78-1.59-3.78-4.66a4.43,4.43,0,0,1,1.59-3.47A5.76,5.76,0,0,1,93,8.89,5.52,5.52,0,0,1,98,12Z"/><path class="cls-1" d="M112.22,12,110,13.31a3.86,3.86,0,0,0-1.2-1.43,2.77,2.77,0,0,0-1.54-.38,2.88,2.88,0,0,0-1.92.65,2.06,2.06,0,0,0-.76,1.62c0,.9.67,1.63,2,2.17l1.84.76a7.79,7.79,0,0,1,3.27,2.21,4.94,4.94,0,0,1,1,3.2A5.6,5.6,0,0,1,111,26.3,5.79,5.79,0,0,1,106.78,28a5.62,5.62,0,0,1-4-1.42,6.5,6.5,0,0,1-1.92-4l2.81-.61a4.78,4.78,0,0,0,.66,2.23,3.16,3.16,0,0,0,4.66.33,3,3,0,0,0,.86-2.21,3.1,3.1,0,0,0-.15-1,2.57,2.57,0,0,0-.46-.82,3.62,3.62,0,0,0-.82-.7,7.69,7.69,0,0,0-1.19-.63l-1.77-.74q-3.78-1.59-3.78-4.66a4.46,4.46,0,0,1,1.58-3.47,5.77,5.77,0,0,1,4-1.4A5.5,5.5,0,0,1,112.22,12Z"/><path class="cls-1" d="M118.82,9.25V25h5.41v2.61h-8.18V9.25Z"/><path class="cls-1" d="M129.64,9.25V27.64h-2.77V9.25Z"/><path class="cls-1" d="M134.06,27.64V8l13.41,14V9.25h2.78V28.76l-13.41-14V27.64Z"/><path class="cls-1" d="M164.31,18.06h7.6v.61a12.45,12.45,0,0,1-.49,3.67,7.87,7.87,0,0,1-1.61,2.76A8.3,8.3,0,0,1,163.3,28a9,9,0,0,1-6.62-2.79,9.27,9.27,0,0,1-2.75-6.72,9.62,9.62,0,0,1,13.64-8.71,11.56,11.56,0,0,1,3.52,2.85l-2,1.89a6.71,6.71,0,0,0-5.52-3,6.59,6.59,0,0,0-4.89,2,6.72,6.72,0,0,0-2,5,6.51,6.51,0,0,0,2.2,5.06,6.61,6.61,0,0,0,4.47,1.85A5.54,5.54,0,0,0,167.07,24a4.93,4.93,0,0,0,1.83-3.33h-4.59Z"/><path class="cls-1" d="M59.42,31a.24.24,0,0,1-.24-.24h0a.23.23,0,0,1,.24-.23H163.63a.23.23,0,0,1,.24.23h0a.24.24,0,0,1-.24.24H59.42Z"/><path class="cls-1" d="M37.29,30.3C35.73,36,29.13,41.65,21.56,44.22l.55-.08C32.42,42.49,42.45,35,44.51,27.48S39.88,15.15,29.56,16.8a33.38,33.38,0,0,0-16.35,7.8,29.8,29.8,0,0,1,10.57-4C33.1,19.15,39.15,23.47,37.29,30.3Z"/><path class="cls-1" d="M20.2,31.44c-8.24-.35-12.48-5.8-9.5-12.51,2.58-5.79,9.73-10.66,17.14-12.1h-.51C17.61,6.82,7,13,3.56,20.69S5.26,34.57,15,34.57a24.6,24.6,0,0,0,4.18-.37Z"/><path class="cls-1" d="M24.73,32.66a30.19,30.19,0,0,0,6.71-3.59,27.25,27.25,0,0,1-6,1.94Z"/><path class="cls-1" d="M27.33,20.81a21,21,0,0,0-2.67.19L16.72,41.85l4-1.61L29.62,21A16.62,16.62,0,0,0,27.33,20.81Z"/><path class="cls-1" d="M29.49,16.35c.82-.13,1.61-.21,2.38-.26L38.92.78l-7.68,3L26.15,17.09A29.75,29.75,0,0,1,29.49,16.35Z"/><path class="cls-1" d="M171.57,9.46a.93.93,0,1,1-.94.92.92.92,0,0,1,.94-.92Zm0,.16a.76.76,0,0,0,0,1.52.71.71,0,0,0,.72-.75.73.73,0,0,0-.72-.77Zm-.16,1.27h-.18v-1l.33,0a.45.45,0,0,1,.31.07.24.24,0,0,1-.09.43h0a.32.32,0,0,1,.16.23.69.69,0,0,0,.07.25h-.19a.64.64,0,0,1-.07-.26c0-.1-.09-.15-.23-.15h-.11Zm0-.55h.12c.13,0,.25,0,.25-.15s-.06-.16-.23-.16l-.14,0Z"/><path class="cls-1" d="M51.29,37.73a2.36,2.36,0,0,1,.15-1,.13.13,0,0,1,.18,0c.07.75.42,1.32,1.28,1.32a1.21,1.21,0,0,0,1.26-1.22,1.69,1.69,0,0,0-.86-1.35A2.08,2.08,0,0,1,52.4,34a1.69,1.69,0,0,1,1.89-1.63,2.46,2.46,0,0,1,1.25.35,6.55,6.55,0,0,0-.32,1,.19.19,0,0,1-.23,0c.12-.59,0-1.07-.81-1.07A1.06,1.06,0,0,0,53,33.73,1.77,1.77,0,0,0,53.85,35a1.92,1.92,0,0,1,.93,1.57,2,2,0,0,1-3.49,1.18Z"/><path class="cls-1" d="M56.83,35.13,56,37.48c-.05.16,0,.22.06.22a3.09,3.09,0,0,0,1-.78c.09,0,.14,0,.12.16a2.86,2.86,0,0,1-1.65,1.24.26.26,0,0,1-.24-.24,1.91,1.91,0,0,1,.12-.49l.84-2.46h-.67a.22.22,0,0,1,.09-.24l.69-.12.49-.85a.26.26,0,0,1,.32,0l-.25.84h.94a.25.25,0,0,1-.1.32Z"/><path class="cls-1" d="M59.12,35.5l-.37,1.08h0a13.08,13.08,0,0,1,.91-1.46.92.92,0,0,1,.63-.44c.3,0,.34.29.34.42a1.12,1.12,0,0,1-.18.52c-.1.13-.24.13-.28,0s-.09-.33-.18-.33-.17.08-.3.26a14.78,14.78,0,0,0-1.47,2.71c0,.07-.07.11-.14.11s-.35,0-.29-.23c.11-.34.66-1.87.89-2.72,0-.09,0-.18-.07-.18s-.46.25-.61.45c-.09,0-.15,0-.14-.14.28-.46.6-.82,1-.82S59.19,35.26,59.12,35.5Z"/><path class="cls-1" d="M63.3,35.19c0,.66-.85,1.09-2.09,1.44a2.13,2.13,0,0,0-.12.76.45.45,0,0,0,.41.5c.31,0,.53-.18.91-.5a.11.11,0,0,1,.11.14,1.77,1.77,0,0,1-1.38.79c-.52,0-.7-.49-.7-.91a3.25,3.25,0,0,1,1.28-2.32,1.63,1.63,0,0,1,1-.41A.54.54,0,0,1,63.3,35.19Zm-1.37.17a3.48,3.48,0,0,0-.64,1,2.61,2.61,0,0,0,1.16-.64,1,1,0,0,0,.34-.59.19.19,0,0,0-.2-.2C62.47,34.94,62.24,35,61.93,35.36Z"/><path class="cls-1" d="M64.57,36.54l0,0c.61-.93,1.47-1.88,2.11-1.88a.43.43,0,0,1,.49.46,2.37,2.37,0,0,1-.14.61c-.16.43-.78,1.83-.8,1.9s-.05.17,0,.17a1.79,1.79,0,0,0,.81-.59c.12,0,.14.05.14.12a2,2,0,0,1-1.48,1,.25.25,0,0,1-.21-.22c0-.08,0-.14.21-.57s.5-1.27.7-1.7a2,2,0,0,0,.18-.63c0-.1,0-.2-.14-.2s-.72.43-1.19,1A14.09,14.09,0,0,0,64,38.21a.16.16,0,0,1-.16.11c-.09,0-.33,0-.25-.23l1-2.72c0-.11,0-.19,0-.19a1.52,1.52,0,0,0-.79.43.1.1,0,0,1-.1-.13,1.82,1.82,0,0,1,1.28-.8.23.23,0,0,1,.23.35Z"/><path class="cls-1" d="M70.12,34.75a1,1,0,0,0,.21.08,1.86,1.86,0,0,0,.41,0,2.5,2.5,0,0,1,.39-.07c.12,0,.18.09.18.22s-.1.26-.19.26a1.35,1.35,0,0,1-.28,0,1.32,1.32,0,0,0-.32,0s-.09,0-.08,0a1.3,1.3,0,0,1,.06.33,2.17,2.17,0,0,1-1.09,1.72,3.56,3.56,0,0,1-.62.23.38.38,0,0,0-.19.3.53.53,0,0,0,.29.41l.84.51c.5.3.65.57.65.84,0,.48-.7,1-2.1,1-.63,0-1.37-.24-1.37-.82s1-1.07,1.48-1.22c-.23-.14-.28-.27-.28-.4a2,2,0,0,1,.39-.66.78.78,0,0,1-.63-.78,2.08,2.08,0,0,1,.7-1.45,1.9,1.9,0,0,1,1.28-.51A1,1,0,0,1,70.12,34.75Zm-.31,4.9a.68.68,0,0,0-.37-.53,2.9,2.9,0,0,0-.8-.43,1.37,1.37,0,0,0-.8.32.67.67,0,0,0-.33.56c0,.4.58.66,1.16.66C69.07,40.23,69.81,40.06,69.81,39.65Zm-.65-4.37a3.32,3.32,0,0,0-.77,1.59.28.28,0,0,0,.26.3.78.78,0,0,0,.57-.34A3.42,3.42,0,0,0,70,35.22a.27.27,0,0,0-.26-.29C69.6,34.93,69.43,35,69.16,35.28Z"/><path class="cls-1" d="M72.66,35.13l-.8,2.35c0,.16,0,.22.06.22a3.09,3.09,0,0,0,1-.78c.09,0,.14,0,.12.16a2.86,2.86,0,0,1-1.65,1.24.26.26,0,0,1-.24-.24,1.91,1.91,0,0,1,.12-.49l.84-2.46h-.67a.22.22,0,0,1,.09-.24l.69-.12.49-.85A.26.26,0,0,1,73,34l-.25.84h.94a.25.25,0,0,1-.1.32Z"/><path class="cls-1" d="M76,32.08l-.63,1.76-.88,2.58v0A5.63,5.63,0,0,1,75.9,35a1.48,1.48,0,0,1,.82-.33c.38,0,.51.27.51.57a4.93,4.93,0,0,1-.67,2A2.84,2.84,0,0,1,76,38a.93.93,0,0,1-.63.34c-.28,0-.32-.18-.32-.25a.27.27,0,0,1,.23-.28.21.21,0,0,1,.12.05.57.57,0,0,0,.23.12c.13,0,.21-.13.34-.44a8.62,8.62,0,0,0,.63-2.22c0-.17-.06-.26-.19-.26a.9.9,0,0,0-.46.23,5.58,5.58,0,0,0-1.1,1.15,13.35,13.35,0,0,0-1,1.79.17.17,0,0,1-.16.11c-.09,0-.32,0-.25-.23L75,33.24c.19-.57.24-.69.1-.78L75,32.34a.09.09,0,0,1,0-.12A4.44,4.44,0,0,1,76,32Z"/><path class="cls-1" d="M80.46,35.19c0,.66-.85,1.09-2.09,1.44a2.08,2.08,0,0,0-.13.76.45.45,0,0,0,.42.5c.31,0,.53-.18.91-.5a.11.11,0,0,1,.11.14,1.77,1.77,0,0,1-1.38.79c-.52,0-.7-.49-.7-.91a3.25,3.25,0,0,1,1.28-2.32,1.63,1.63,0,0,1,1-.41A.54.54,0,0,1,80.46,35.19Zm-1.37.17a3.48,3.48,0,0,0-.64,1,2.61,2.61,0,0,0,1.16-.64.94.94,0,0,0,.33-.59.18.18,0,0,0-.19-.2C79.63,34.94,79.4,35,79.09,35.36Z"/><path class="cls-1" d="M81.73,36.54l0,0c.61-.93,1.46-1.88,2.11-1.88a.43.43,0,0,1,.49.46,2.37,2.37,0,0,1-.14.61c-.16.43-.78,1.83-.81,1.9s0,.17,0,.17a1.79,1.79,0,0,0,.81-.59c.12,0,.14.05.14.12a2,2,0,0,1-1.48,1,.25.25,0,0,1-.21-.22c0-.08,0-.14.21-.57s.5-1.27.7-1.7a2,2,0,0,0,.18-.63c0-.1,0-.2-.14-.2s-.72.43-1.19,1a14.09,14.09,0,0,0-1.32,2.19c0,.08-.08.11-.16.11s-.33,0-.25-.23l1-2.72c0-.11,0-.19,0-.19a1.52,1.52,0,0,0-.79.43.1.1,0,0,1-.1-.13,1.82,1.82,0,0,1,1.28-.8.23.23,0,0,1,.23.35Z"/><path class="cls-1" d="M86.07,35.39c.05-.09.05-.16,0-.16a1.9,1.9,0,0,0-.72.46.12.12,0,0,1-.11-.15,2.5,2.5,0,0,1,1.42-.86.22.22,0,0,1,.14.08c0,.05,0,.13-.05.38l-1,2.45c0,.09,0,.19,0,.19a2.06,2.06,0,0,0,.89-.64.14.14,0,0,1,.13.15,2.69,2.69,0,0,1-1.61,1,.23.23,0,0,1-.14-.08A.19.19,0,0,1,85,38Zm1-2.16a.51.51,0,0,1-.45.53.29.29,0,0,1-.3-.32c0-.19.12-.54.46-.54S87.1,33,87.1,33.23Z"/><path class="cls-1" d="M88.46,36.54l0,0c.61-.93,1.47-1.88,2.12-1.88a.42.42,0,0,1,.48.46,2.37,2.37,0,0,1-.14.61c-.15.43-.78,1.83-.8,1.9s0,.17,0,.17a1.85,1.85,0,0,0,.81-.59c.12,0,.14.05.14.12a2,2,0,0,1-1.49,1,.25.25,0,0,1-.21-.22c0-.08,0-.14.21-.57s.5-1.27.7-1.7a2,2,0,0,0,.18-.63c0-.1,0-.2-.14-.2s-.71.43-1.19,1a14.09,14.09,0,0,0-1.32,2.19c0,.08-.08.11-.15.11s-.33,0-.25-.23l1-2.72c0-.11,0-.19,0-.19a1.46,1.46,0,0,0-.78.43.11.11,0,0,1-.11-.13,1.84,1.84,0,0,1,1.29-.8c.21,0,.3.15.22.35Z"/><path class="cls-1" d="M94,34.75a1,1,0,0,0,.2.08,2,2,0,0,0,.42,0,2.32,2.32,0,0,1,.39-.07c.12,0,.18.09.18.22s-.11.26-.19.26a1.35,1.35,0,0,1-.29,0,1.32,1.32,0,0,0-.32,0s-.08,0-.07,0a2,2,0,0,1,.06.33,2.19,2.19,0,0,1-1.1,1.72,3.42,3.42,0,0,1-.61.23.35.35,0,0,0-.19.3.53.53,0,0,0,.28.41c.2.13.54.32.85.51.5.3.64.57.64.84,0,.48-.69,1-2.1,1-.63,0-1.36-.24-1.36-.82s1-1.07,1.47-1.22c-.22-.14-.28-.27-.28-.4a2,2,0,0,1,.39-.66.78.78,0,0,1-.63-.78,2.08,2.08,0,0,1,.7-1.45,1.92,1.92,0,0,1,1.28-.51A1,1,0,0,1,94,34.75Zm-.31,4.9c0-.15-.1-.34-.38-.53a2.9,2.9,0,0,0-.8-.43,1.39,1.39,0,0,0-.8.32.69.69,0,0,0-.33.56c0,.4.58.66,1.17.66C93,40.23,93.7,40.06,93.7,39.65Zm-.65-4.37a3.25,3.25,0,0,0-.78,1.59.28.28,0,0,0,.26.3.76.76,0,0,0,.57-.34,3.42,3.42,0,0,0,.78-1.61.27.27,0,0,0-.25-.29C93.48,34.93,93.32,35,93.05,35.28Z"/><path class="cls-1" d="M103.14,32.64a9.89,9.89,0,0,0-.39,1.16c0,.06-.21.06-.23,0,.16-.75-.06-1.16-.94-1.16a3.07,3.07,0,0,0-2.21,1,3.89,3.89,0,0,0-1,2.58c0,1.22.58,1.89,1.67,1.89a2.13,2.13,0,0,0,1.86-1.21.13.13,0,0,1,.2.06,6.87,6.87,0,0,1-.56,1.22,5.12,5.12,0,0,0-.68.09,5,5,0,0,1-.84.11A2.17,2.17,0,0,1,97.59,36a3.57,3.57,0,0,1,1.23-2.59,4.33,4.33,0,0,1,2.9-1.06A3.78,3.78,0,0,1,103.14,32.64Z"/><path class="cls-1" d="M105.7,35.76a3.2,3.2,0,0,1-.91,2,1.68,1.68,0,0,1-1.24.6c-.55,0-.91-.41-.86-1.15a3.17,3.17,0,0,1,.94-1.93,1.69,1.69,0,0,1,1.19-.56C105.43,34.68,105.74,35.13,105.7,35.76Zm-1.57-.41a4.89,4.89,0,0,0-.86,2.16c0,.3.1.55.35.55s.41-.08.68-.45a5.39,5.39,0,0,0,.81-2.11c0-.26,0-.57-.35-.57S104.38,35,104.13,35.35Z"/><path class="cls-1" d="M109.67,35.8l-.33.79,0,0c.83-1.32,1.48-1.93,2-1.93a.43.43,0,0,1,.49.46,2,2,0,0,1-.14.61c-.16.43-.78,1.83-.8,1.9s0,.17,0,.17a1.79,1.79,0,0,0,.81-.59c.13,0,.14.05.14.12a2,2,0,0,1-1.48,1,.25.25,0,0,1-.21-.22c0-.08,0-.14.21-.57s.53-1.26.7-1.7a2.28,2.28,0,0,0,.18-.63c0-.1,0-.2-.14-.2s-.66.44-1.13,1a15.21,15.21,0,0,0-1.35,2.18c0,.07-.08.11-.16.11s-.33,0-.25-.23l.85-2.26c0-.09.38-.83.07-.83s-.72.44-1.2,1a13.62,13.62,0,0,0-1.29,2.18.16.16,0,0,1-.16.11c-.09,0-.32,0-.25-.23s1-2.59,1-2.72,0-.24-.06-.24a1.12,1.12,0,0,0-.76.48.11.11,0,0,1-.12-.13,1.46,1.46,0,0,1,1.33-.8c.19,0,.28.15.2.35l-.59,1.56,0,0c.62-1,1.44-1.93,2.09-1.93S109.85,35.36,109.67,35.8Z"/><path class="cls-1" d="M116,35.8l-.32.79,0,0c.83-1.32,1.49-1.93,2.06-1.93a.43.43,0,0,1,.48.46,2,2,0,0,1-.14.61c-.15.43-.78,1.83-.8,1.9s0,.17,0,.17a1.85,1.85,0,0,0,.81-.59c.12,0,.14.05.14.12a2,2,0,0,1-1.49,1,.25.25,0,0,1-.21-.22c0-.08,0-.14.21-.57s.53-1.26.7-1.7a2.28,2.28,0,0,0,.18-.63c0-.1,0-.2-.14-.2s-.66.44-1.13,1A15.21,15.21,0,0,0,115,38.21c0,.07-.08.11-.16.11s-.33,0-.25-.23l.86-2.26c0-.09.38-.83.07-.83s-.73.44-1.2,1a13.57,13.57,0,0,0-1.3,2.18c0,.08-.08.11-.15.11s-.33,0-.25-.23.95-2.59,1-2.72,0-.24-.06-.24a1.12,1.12,0,0,0-.76.48.11.11,0,0,1-.12-.13,1.46,1.46,0,0,1,1.33-.8c.2,0,.28.15.21.35l-.6,1.56,0,0c.62-1,1.43-1.93,2.08-1.93S116.15,35.36,116,35.8Z"/><path class="cls-1" d="M119.66,37.45c-.08.21,0,.3.06.3s.47-.28.92-.72a8.71,8.71,0,0,0,1.52-2.3c.18,0,.39.05.42.15s-.64,1.65-1,2.68c0,.11-.06.21,0,.21s.62-.4.85-.67c.07,0,.14,0,.15.12a2.51,2.51,0,0,1-1.51,1.1.24.24,0,0,1-.22-.3l.59-1.58h0c-.62.78-1.69,1.89-2.15,1.89s-.4-.36-.25-.74l.79-2.09c.06-.17.07-.25,0-.25s-.61.38-.82.59a.12.12,0,0,1-.15-.13,2.94,2.94,0,0,1,1.5-1c.11,0,.31.11.26.25Z"/><path class="cls-1" d="M124.18,36.54l0,0c.61-.93,1.47-1.88,2.11-1.88a.43.43,0,0,1,.49.46,2.37,2.37,0,0,1-.14.61c-.16.43-.78,1.83-.81,1.9s0,.17,0,.17a1.79,1.79,0,0,0,.81-.59c.12,0,.14.05.14.12a2,2,0,0,1-1.48,1,.25.25,0,0,1-.21-.22c0-.08,0-.14.21-.57s.5-1.27.7-1.7a2,2,0,0,0,.18-.63c0-.1,0-.2-.14-.2s-.72.43-1.19,1a14.09,14.09,0,0,0-1.32,2.19c0,.08-.08.11-.16.11s-.33,0-.25-.23l1-2.72c0-.11,0-.19,0-.19a1.52,1.52,0,0,0-.79.43.1.1,0,0,1-.1-.13,1.82,1.82,0,0,1,1.28-.8.23.23,0,0,1,.23.35Z"/><path class="cls-1" d="M128.52,35.39c0-.09,0-.16,0-.16a1.9,1.9,0,0,0-.72.46.12.12,0,0,1-.11-.15,2.5,2.5,0,0,1,1.42-.86.22.22,0,0,1,.14.08c0,.05,0,.13-.05.38l-1,2.45c0,.09,0,.19,0,.19a2.06,2.06,0,0,0,.89-.64.14.14,0,0,1,.13.15,2.69,2.69,0,0,1-1.61,1,.23.23,0,0,1-.14-.08.19.19,0,0,1,0-.23Zm1-2.16a.51.51,0,0,1-.45.53.29.29,0,0,1-.3-.32c0-.19.12-.54.46-.54S129.55,33,129.55,33.23Z"/><path class="cls-1" d="M131.37,35.13l-.8,2.35c0,.16,0,.22.06.22a3.09,3.09,0,0,0,1-.78c.09,0,.14,0,.12.16a2.86,2.86,0,0,1-1.65,1.24.27.27,0,0,1-.24-.24,1.67,1.67,0,0,1,.13-.49l.83-2.46h-.67a.22.22,0,0,1,.09-.24l.69-.12.49-.85a.28.28,0,0,1,.33,0l-.25.84h.94a.26.26,0,0,1-.11.32Z"/><path class="cls-1" d="M133.71,36.14a10.1,10.1,0,0,1-.13,1.9h0a7.26,7.26,0,0,0,.72-1.48,7.8,7.8,0,0,0,.32-1.6c0-.25.15-.27.21-.27a.62.62,0,0,1,.24.08.19.19,0,0,1,.08.17,6.9,6.9,0,0,1-1,2.64,12.51,12.51,0,0,1-1.43,2.07c-.64.73-1.07.87-1.34.87a.41.41,0,0,1-.45-.4.35.35,0,0,1,.34-.37.28.28,0,0,1,.23.14.32.32,0,0,0,.25.15.85.85,0,0,0,.47-.24,3,3,0,0,0,.76-1.29,8.37,8.37,0,0,0,.17-2c0-1-.16-1.29-.32-1.29s-.32.29-.51.65c-.09,0-.14,0-.16-.11.18-.58.56-1.11,1-1.11S133.69,35.54,133.71,36.14Z"/><path class="cls-1" d="M142.13,35.06c.39,0,.39,0,.45-.19l.36-1.13c.25-.81.27-.94-.19-1l-.22,0a.16.16,0,0,1,.05-.22c.36,0,.64,0,1,0s.63,0,1,0a.14.14,0,0,1,0,.22l-.2,0c-.49.07-.54.16-.8,1l-1,3.21c-.25.81-.27,1,.17,1l.23,0a.15.15,0,0,1,0,.21l-1.06,0-1,0a.14.14,0,0,1,0-.21l.28,0c.41,0,.5-.15.78-1l.41-1.31c.07-.22.06-.23-.31-.23h-2.35c-.27,0-.26,0-.33.21L138.94,37c-.25.81-.27,1,.17,1l.26,0a.14.14,0,0,1,0,.21l-1.09,0-.92,0a.14.14,0,0,1,0-.21l.2,0c.41,0,.5-.15.77-1l1-3.21c.26-.81.28-.94-.19-1l-.21,0a.14.14,0,0,1,0-.22c.35,0,.64,0,1,0s.64,0,1,0a.14.14,0,0,1,0,.22l-.2,0c-.49.08-.52.16-.8,1l-.35,1.12c-.06.2-.06.2.25.2Z"/><path class="cls-1" d="M146.75,35.19c0,.66-.85,1.09-2.09,1.44a2.13,2.13,0,0,0-.12.76.45.45,0,0,0,.41.5c.31,0,.53-.18.91-.5a.11.11,0,0,1,.11.14,1.77,1.77,0,0,1-1.38.79c-.52,0-.7-.49-.7-.91a3.25,3.25,0,0,1,1.28-2.32,1.63,1.63,0,0,1,1-.41A.53.53,0,0,1,146.75,35.19Zm-1.37.17a3.48,3.48,0,0,0-.64,1,2.61,2.61,0,0,0,1.16-.64,1,1,0,0,0,.34-.59.19.19,0,0,0-.2-.2C145.92,34.94,145.69,35,145.38,35.36Z"/><path class="cls-1" d="M150,34.48a.36.36,0,0,1,.43.13c-.13.32-.88,2.22-1.16,3,0,.15,0,.2.06.2s.4-.15.89-.58a.11.11,0,0,1,.12.11,2.26,2.26,0,0,1-1.45,1,.24.24,0,0,1-.25-.24,1.13,1.13,0,0,1,.09-.33L149,37h0a3.67,3.67,0,0,1-1.9,1.36c-.24,0-.38-.24-.38-.49a3.79,3.79,0,0,1,.76-1.67,3.64,3.64,0,0,1,1.14-1.11,1.48,1.48,0,0,1,.77-.25.38.38,0,0,1,.21.05.49.49,0,0,1,.17.18Zm-1.5,1a3.83,3.83,0,0,0-1.08,2.24c0,.1.06.16.13.16s.35-.11.84-.56a4.19,4.19,0,0,0,1.16-1.86.46.46,0,0,0-.43-.32C148.87,35.12,148.73,35.22,148.46,35.46Z"/><path class="cls-1" d="M151.39,37.64c-.07.19-.06.28,0,.28s.6-.42,1-.87c.08,0,.13,0,.13.12-.22.43-.76,1.15-1.48,1.15-.26,0-.34-.12-.34-.26a2.85,2.85,0,0,1,.19-.73l1.37-4.09c.21-.6.13-.69,0-.75l-.16-.07a.09.09,0,0,1,0-.13,4.34,4.34,0,0,1,1.09-.26l0,0c-.11.31-.2.55-.51,1.48Z"/><path class="cls-1" d="M154.44,35.13l-.8,2.35c0,.16,0,.22.06.22a3.21,3.21,0,0,0,1-.78c.08,0,.13,0,.12.16a2.91,2.91,0,0,1-1.66,1.24.26.26,0,0,1-.23-.24,1.55,1.55,0,0,1,.12-.49l.83-2.46h-.67a.21.21,0,0,1,.1-.24l.69-.12.48-.85a.27.27,0,0,1,.33,0l-.25.84h.94a.25.25,0,0,1-.11.32Z"/><path class="cls-1" d="M157.81,32.08l-.62,1.76-.89,2.58,0,0A5.48,5.48,0,0,1,157.68,35a1.5,1.5,0,0,1,.82-.33.5.5,0,0,1,.52.57,4.93,4.93,0,0,1-.67,2,2.87,2.87,0,0,1-.57.71.91.91,0,0,1-.63.34c-.28,0-.31-.18-.31-.25a.27.27,0,0,1,.23-.28.24.24,0,0,1,.12.05.54.54,0,0,0,.22.12c.13,0,.22-.13.35-.44a9,9,0,0,0,.62-2.22c0-.17-.06-.26-.18-.26a1,1,0,0,0-.47.23,5.58,5.58,0,0,0-1.09,1.15,14.69,14.69,0,0,0-1,1.79.16.16,0,0,1-.15.11c-.1,0-.32,0-.25-.23l1.64-4.85c.19-.57.23-.69.09-.78l-.18-.12a.09.09,0,0,1,0-.12,4.22,4.22,0,0,1,1-.19Z"/><path class="cls-1" d="M162.25,35.18a.42.42,0,0,1-.43.41.17.17,0,0,1-.17-.15c0-.22,0-.48-.3-.48s-.46.18-.73.58a3.68,3.68,0,0,0-.57,1.79c0,.43.16.56.37.56a1.64,1.64,0,0,0,.93-.53c.09,0,.14.06.11.15a1.94,1.94,0,0,1-1.42.81c-.34,0-.65-.25-.65-.92a3.32,3.32,0,0,1,1.1-2.22,1.65,1.65,0,0,1,1.12-.5C162,34.68,162.25,34.92,162.25,35.18Z"/><path class="cls-1" d="M165.39,34.48a.34.34,0,0,1,.42.13c-.13.32-.88,2.22-1.15,3-.06.15,0,.2.06.2s.39-.15.88-.58a.12.12,0,0,1,.13.11,2.3,2.3,0,0,1-1.45,1,.24.24,0,0,1-.25-.24,1,1,0,0,1,.08-.33l.29-.78h0a3.59,3.59,0,0,1-1.9,1.36c-.24,0-.38-.24-.38-.49a3.79,3.79,0,0,1,.76-1.67A3.86,3.86,0,0,1,164,35.05a1.51,1.51,0,0,1,.78-.25.37.37,0,0,1,.2.05.5.5,0,0,1,.18.18Zm-1.5,1a3.78,3.78,0,0,0-1.08,2.24c0,.1.05.16.13.16s.34-.11.83-.56a4.19,4.19,0,0,0,1.16-1.86.46.46,0,0,0-.43-.32C164.29,35.12,164.15,35.22,163.89,35.46Z"/><path class="cls-1" d="M167.58,35.5l-.37,1.08h0a14.74,14.74,0,0,1,.91-1.46c.2-.25.41-.44.63-.44s.34.29.34.42a1,1,0,0,1-.18.52c-.1.13-.24.13-.27,0s-.1-.33-.18-.33-.18.08-.31.26a14.79,14.79,0,0,0-1.46,2.71c0,.07-.08.11-.15.11s-.34,0-.28-.23c.11-.34.65-1.87.88-2.72,0-.09,0-.18-.06-.18-.23,0-.46.25-.62.45-.08,0-.14,0-.14-.14.28-.46.61-.82,1-.82S167.66,35.26,167.58,35.5Z"/><path class="cls-1" d="M171.77,35.19c0,.66-.86,1.09-2.1,1.44a2.13,2.13,0,0,0-.12.76.45.45,0,0,0,.41.5c.31,0,.53-.18.91-.5a.11.11,0,0,1,.11.14,1.76,1.76,0,0,1-1.38.79c-.52,0-.7-.49-.7-.91a3.27,3.27,0,0,1,1.29-2.32,1.61,1.61,0,0,1,1-.41A.54.54,0,0,1,171.77,35.19Zm-1.37.17a3.28,3.28,0,0,0-.64,1,2.57,2.57,0,0,0,1.15-.64,1,1,0,0,0,.34-.59.19.19,0,0,0-.2-.2C170.93,34.94,170.71,35,170.4,35.36Z"/></g></svg>