<svg xmlns="http://www.w3.org/2000/svg" viewBox="0 0 22 22"><defs><style>.cls-1{fill:#b0cc25;}.cls-2{fill:#00233d;}</style></defs><title>cq-icon-election-couple</title><g id="CQ_Secret" data-name="CQ Secret"><path class="cls-1" d="M14.47,8.75c.11,0,.22,0,.34,0a4.31,4.31,0,1,0-4.16-5.36A5.87,5.87,0,0,1,14.47,8.75Z"/><path class="cls-1" d="M21.79,13.27a9.74,9.74,0,0,0-7.47-3,5.92,5.92,0,0,1-2.14,3.31,14.64,14.64,0,0,1,5.8,3,2,2,0,0,1,.63.89H20.8A1.34,1.34,0,0,0,22,16V14A1,1,0,0,0,21.79,13.27Z"/><path class="cls-2" d="M8.62,14.65a13,13,0,0,0-8.37,3,.69.69,0,0,0-.25.54v2a1.48,1.48,0,0,0,1.44,1.61H15.81a1.44,1.44,0,0,0,1.44-1.44V18.45A.87.87,0,0,0,17,17.7,13,13,0,0,0,8.62,14.65Z"/><circle class="cls-2" cx="8.62" cy="8.9" r="4.31"/></g></svg>