<?xml version="1.0" encoding="utf-8"?>
<!-- Generator: Adobe Illustrator 22.1.0, SVG Export Plug-In . SVG Version: 6.00 Build 0)  -->
<svg version="1.1" id="Layer_1" xmlns="http://www.w3.org/2000/svg" xmlns:xlink="http://www.w3.org/1999/xlink" x="0px" y="0px"
	 viewBox="0 0 22 22" style="enable-background:new 0 0 22 22;" xml:space="preserve">
<style type="text/css">
	.st0{fill:#97D1DA;}
</style>
<title>cq-icon-x-mark</title>
<g id="CQ_Secret">
	<path class="st0" d="M13.4,11l6.2-6.2c0.4-0.4,0.4-1.1,0-1.5l-0.9-0.9c-0.4-0.4-1.1-0.4-1.5,0L11,8.6L4.8,2.3
		c-0.4-0.4-1.1-0.4-1.5,0L2.4,3.2c-0.4,0.4-0.4,1.1,0,1.6L8.6,11l-6.2,6.2c-0.4,0.4-0.4,1.1,0,1.5l0.9,0.9c0.4,0.4,1.1,0.4,1.6,0
		l6.2-6.2l6.2,6.2c0.4,0.4,1.1,0.4,1.5,0l0.9-0.9c0.4-0.4,0.4-1.1,0-1.5L13.4,11z"/>
</g>
</svg>
