<svg xmlns="http://www.w3.org/2000/svg" viewBox="0 0 22 22"><defs><style>.cls-1{fill:#888;}</style></defs><title>cq-icon-election-unfilled</title><g id="CQ_Secret" data-name="CQ Secret"><path class="cls-1" d="M11,1A4.5,4.5,0,1,1,6.5,5.5,4.51,4.51,0,0,1,11,1m0-1a5.5,5.5,0,1,0,5.5,5.5A5.51,5.51,0,0,0,11,0Z"/><path class="cls-1" d="M11,13.83a15.62,15.62,0,0,1,10,3.61,1.1,1.1,0,0,1,0,.24v2.49a.83.83,0,0,1-.83.83H1.83c-.5,0-.83-.42-.83-1.06V17.46a15.66,15.66,0,0,1,10-3.63m0-1A16.55,16.55,0,0,0,.32,16.72a.92.92,0,0,0-.32.69v2.53A1.89,1.89,0,0,0,1.83,22H20.17A1.83,1.83,0,0,0,22,20.17V17.68a1.14,1.14,0,0,0-.32-1A16.55,16.55,0,0,0,11,12.83Z"/></g></svg>