<svg xmlns="http://www.w3.org/2000/svg" viewBox="0 0 22 22"><defs><style>.cls-1{fill:#e16626;}</style></defs><title>cq-icon-election-waived</title><g id="CQ_Secret" data-name="CQ Secret"><path class="cls-1" d="M11,0A11,11,0,1,0,22,11,11,11,0,0,0,11,0Zm5.14,14.47a1,1,0,0,1,0,1.41l-.26.26a1,1,0,0,1-1.41,0L11,12.67,7.53,16.14a1,1,0,0,1-1.41,0l-.26-.26a1,1,0,0,1,0-1.41L9.33,11,5.86,7.53a1,1,0,0,1,0-1.41l.26-.26a1,1,0,0,1,1.41,0L11,9.33l3.47-3.47a1,1,0,0,1,1.41,0l.26.26a1,1,0,0,1,0,1.41L12.67,11Z"/></g></svg>