<svg xmlns="http://www.w3.org/2000/svg" viewBox="0 0 22 22"><defs><style>.cls-1{fill:#eda80f;}.cls-2{fill:#b0cc25;}.cls-3{fill:#00233d;}</style></defs><title>cq-icon-election-family</title><g id="CQ_Secret" data-name="CQ Secret"><path class="cls-1" d="M7.55,13.47A5.69,5.69,0,0,1,5.32,9.26,7.69,7.69,0,0,0,.17,11.9a.68.68,0,0,0-.17.47V14.1c0,.85.43,1.41,1,1.41H3A14.3,14.3,0,0,1,7.55,13.47Z"/><path class="cls-1" d="M5.4,7.94A5.74,5.74,0,0,1,9.48,3.45,3.76,3.76,0,1,0,5.4,7.94Z"/><path class="cls-2" d="M16.62,7.94a3.76,3.76,0,1,0-4.1-4.49A5.72,5.72,0,0,1,16.62,7.94Z"/><path class="cls-2" d="M21.83,11.9A7.67,7.67,0,0,0,16.7,9.26a5.69,5.69,0,0,1-2.23,4.21,14.3,14.3,0,0,1,4.52,2h2a1.13,1.13,0,0,0,1-1.25V12.55A.87.87,0,0,0,21.83,11.9Z"/><circle class="cls-3" cx="11.01" cy="8.95" r="4.2"/><path class="cls-3" d="M11,14.54a12.63,12.63,0,0,0-8.16,3,.66.66,0,0,0-.24.53V20A1.44,1.44,0,0,0,4,21.55H18a1.39,1.39,0,0,0,1.4-1.4v-1.9c0-.41-.08-.6-.24-.73A12.63,12.63,0,0,0,11,14.54Z"/></g></svg>