<svg xmlns="http://www.w3.org/2000/svg" viewBox="0 0 40 40"><defs><style>.cls-1{fill:#fff;}</style></defs><title>cquence-icon-white</title><g id="CQ_Secret" data-name="CQ Secret"><path class="cls-1" d="M32.2,37.43c1.64.51,3.45,1.11,5.51,1.79,1,.34,1.63-.27,1.3-1.3-.69-2.05-1.29-3.87-1.8-5.51a3.53,3.53,0,0,0-2.34-1.95c-2-.54-3.67-1-5.13-1.42-.73-.2-1.12.19-.92.92.4,1.46.88,3.15,1.42,5.13A3.6,3.6,0,0,0,32.2,37.43Z"/><path class="cls-1" d="M29.73,11l5.13-1.42a3.6,3.6,0,0,0,2.34-2c.51-1.64,1.1-3.46,1.79-5.51.34-1-.27-1.64-1.3-1.3-2.06.68-3.87,1.28-5.51,1.79a3.65,3.65,0,0,0-2,2.34c-.54,2-1,3.68-1.41,5.14C28.61,10.76,29,11.15,29.73,11Z"/><path class="cls-1" d="M28.35,17.12l4.92-.55c1-.11,1.93-.67,2-1.28.21-1.2.51-2.47.9-3.87.19-.71-.53-1.1-1.53-.83L29.58,12A2.37,2.37,0,0,0,28,13.4c-.3,1.16-.53,2.16-.7,3.06C27.23,16.91,27.67,17.2,28.35,17.12Z"/><path class="cls-1" d="M28.31,22c1.35.14,3,.3,4.91.48,1,.1,1.81-.29,1.77-.86a21.9,21.9,0,0,1,0-3.34c.05-.56-.79-.95-1.77-.85-1.95.18-3.55.34-4.91.48-.68.07-1.21.47-1.24.86a13.4,13.4,0,0,0,0,2.37C27.09,21.58,27.62,22,28.31,22Z"/><path class="cls-1" d="M19.05,12.71a13.4,13.4,0,0,0,2.37,0c.39,0,.79-.57.86-1.25.13-1.35.29-3,.47-4.91.1-1-.29-1.81-.86-1.77a20.57,20.57,0,0,1-3.33,0c-.57,0-.95.8-.86,1.77.18,2,.35,3.56.48,4.92C18.26,12.15,18.64,12.68,19.05,12.71Z"/><path class="cls-1" d="M18.11,35.22a21.78,21.78,0,0,1,3.33,0c.57,0,.95-.79.86-1.77-.18-1.94-.34-3.55-.48-4.9-.07-.69-.46-1.22-.86-1.25a13.4,13.4,0,0,0-2.37,0c-.4,0-.79.56-.87,1.25-.13,1.35-.29,3-.47,4.91C17.15,34.42,17.54,35.26,18.11,35.22Z"/><path class="cls-1" d="M24.48,35.54c1.19.22,2.46.51,3.87.9.71.19,1.1-.53.83-1.52-.52-2-1-3.66-1.36-5.11a2.33,2.33,0,0,0-1.45-1.55c-1.17-.31-2.16-.54-3.07-.71-.44-.09-.73.35-.66,1,.16,1.35.35,3,.56,4.91C23.3,34.48,23.87,35.44,24.48,35.54Z"/><path class="cls-1" d="M13.64,11.74c1.16.31,2.16.54,3.06.71.45.08.73-.35.66-1-.16-1.36-.35-3-.56-4.92-.1-1-.67-1.94-1.27-2-1.2-.21-2.48-.51-3.88-.89-.71-.19-1.09.53-.83,1.52.52,2,1,3.66,1.37,5.11A2.35,2.35,0,0,0,13.64,11.74Z"/><path class="cls-1" d="M5.13,9.54,10.27,11c.73.2,1.11-.19.91-.92-.4-1.46-.87-3.15-1.42-5.13A3.58,3.58,0,0,0,7.81,2.57C6.17,2.06,4.35,1.46,2.29.78,1.26.44.65,1.05,1,2.08,1.68,4.13,2.28,6,2.79,7.59A3.56,3.56,0,0,0,5.13,9.54Z"/><path class="cls-1" d="M6.79,22.53c2-.18,3.56-.34,4.91-.48.68-.07,1.21-.46,1.25-.86a15.62,15.62,0,0,0,0-2.37c0-.4-.57-.79-1.25-.86-1.36-.14-3-.3-4.92-.48-1-.1-1.81.29-1.76.86a23.27,23.27,0,0,1,0,3.34C5,22.24,5.81,22.63,6.79,22.53Z"/><path class="cls-1" d="M2.32,39.24c2.05-.69,3.87-1.28,5.51-1.8A3.56,3.56,0,0,0,9.78,35.1c.54-2,1-3.67,1.41-5.13.2-.73-.19-1.12-.91-.92L5.14,30.47a3.62,3.62,0,0,0-2.34,2C2.29,34.07,1.7,35.89,1,37.94.67,39,1.28,39.58,2.32,39.24Z"/><path class="cls-1" d="M5.32,29.41l5.11-1.36A2.35,2.35,0,0,0,12,26.6c.3-1.16.54-2.16.71-3.06.08-.45-.36-.74-1-.66l-4.92.55c-1,.1-1.93.67-2,1.28-.21,1.2-.51,2.47-.89,3.88C3.61,29.3,4.33,29.68,5.32,29.41Z"/></g></svg>