<svg xmlns="http://www.w3.org/2000/svg" viewBox="0 0 175 45"><defs><style>.cls-1{fill:#fff;}</style></defs><title>cquence-logo-white</title><g id="CQ_Secret" data-name="CQ Secret"><path class="cls-1" d="M52,29.42A13.16,13.16,0,1,1,56.86,7.07l-3.47,3.87a8,8,0,1,0-.67,12.37l3,4.23A13.45,13.45,0,0,1,52,29.42Z"/><path class="cls-1" d="M98.63,29.42V27.14a6.59,6.59,0,0,1-5.14,2.58,5.72,5.72,0,0,1-4.21-1.6,5.94,5.94,0,0,1-1.62-4.43V13.51h5v9.83c0,2,.83,3,2.51,3a3.18,3.18,0,0,0,2.42-1.1c.66-.74,1-1.28,1-1.63V13.51h5V29.42Z"/><path class="cls-1" d="M120.75,24.48v3.15a11.69,11.69,0,0,1-7.1,2.09,9.66,9.66,0,0,1-6.7-2.25,7.6,7.6,0,0,1-2.51-6,8.08,8.08,0,0,1,2.35-6,8.21,8.21,0,0,1,6-2.35,8,8,0,0,1,6,2.47,8.71,8.71,0,0,1,2.2,6.62H109.61a4.57,4.57,0,0,0,1.53,3.33,5.55,5.55,0,0,0,3.71,1.17A10,10,0,0,0,120.75,24.48Zm-11-4.85h6.91c-.27-2.32-1.42-3.47-3.46-3.47S110,17.31,109.71,19.63Z"/><path class="cls-1" d="M126.72,13.51v2.26a6.63,6.63,0,0,1,5.17-2.6A5.76,5.76,0,0,1,136,14.76a6,6,0,0,1,1.66,4.54V29.42h-5v-9.7c0-2.13-.82-3.19-2.47-3.19-1.18,0-2.34.87-3.49,2.63V29.42h-5V13.51Z"/><path class="cls-1" d="M153.18,25.07v3.59a15.8,15.8,0,0,1-5.37,1.06,9.69,9.69,0,0,1-6.71-2.25,7.63,7.63,0,0,1-2.51-6,7.81,7.81,0,0,1,2.54-6,9.12,9.12,0,0,1,6.46-2.36A15.47,15.47,0,0,1,153,14.22v3.72a9,9,0,0,0-4.08-1.06,5.09,5.09,0,0,0-3.59,1.25,4.33,4.33,0,0,0-1.35,3.34,4.53,4.53,0,0,0,1.32,3.4,4.66,4.66,0,0,0,3.45,1.3A13.86,13.86,0,0,0,153.18,25.07Z"/><path class="cls-1" d="M169.5,24.48v3.15a11.66,11.66,0,0,1-7.09,2.09,9.67,9.67,0,0,1-6.71-2.25,7.63,7.63,0,0,1-2.51-6,8.09,8.09,0,0,1,2.36-6,8.19,8.19,0,0,1,6-2.35,8,8,0,0,1,6,2.47,8.71,8.71,0,0,1,2.2,6.62H158.36a4.57,4.57,0,0,0,1.54,3.33,5.53,5.53,0,0,0,3.7,1.17A10,10,0,0,0,169.5,24.48Zm-11-4.85h6.91c-.27-2.32-1.42-3.47-3.45-3.47S158.71,17.31,158.46,19.63Z"/><path class="cls-1" d="M23,29.39l3.91,1.27c.73.24,1.16-.19.92-.92-.49-1.46-.91-2.74-1.28-3.9a2.51,2.51,0,0,0-1.65-1.39l-3.64-1c-.52-.14-.8.13-.66.65.29,1,.63,2.23,1,3.64A2.51,2.51,0,0,0,23,29.39Z"/><path class="cls-1" d="M21.28,10.62c1-.29,2.23-.63,3.64-1a2.55,2.55,0,0,0,1.66-1.39c.36-1.16.78-2.45,1.26-3.91.25-.73-.19-1.16-.92-.92-1.45.48-2.74.91-3.9,1.27a2.55,2.55,0,0,0-1.39,1.66c-.38,1.41-.72,2.61-1,3.64C20.49,10.48,20.76,10.75,21.28,10.62Z"/><path class="cls-1" d="M20.3,15l3.49-.39c.7-.07,1.37-.47,1.45-.91.15-.85.36-1.75.63-2.74.14-.51-.37-.78-1.08-.59l-3.62,1a1.64,1.64,0,0,0-1.1,1c-.22.83-.38,1.54-.5,2.17C19.51,14.84,19.82,15.05,20.3,15Z"/><path class="cls-1" d="M20.27,18.48l3.48.34c.69.07,1.29-.21,1.26-.61a14.42,14.42,0,0,1,0-2.37c0-.4-.56-.67-1.25-.6l-3.48.34c-.48.05-.86.33-.89.61a11.77,11.77,0,0,0,0,1.68C19.41,18.15,19.79,18.43,20.27,18.48Z"/><path class="cls-1" d="M13.7,11.87a10.6,10.6,0,0,0,1.69,0c.27,0,.55-.4.6-.88.1-1,.21-2.1.34-3.48.07-.7-.2-1.29-.61-1.26a15.49,15.49,0,0,1-2.36,0c-.4,0-.68.57-.61,1.26.13,1.38.24,2.52.34,3.48C13.15,11.46,13.42,11.84,13.7,11.87Z"/><path class="cls-1" d="M13,27.82a15.49,15.49,0,0,1,2.36,0c.41,0,.68-.56.61-1.25-.13-1.38-.24-2.52-.34-3.48-.05-.49-.33-.86-.61-.89a9.43,9.43,0,0,0-1.68,0c-.29,0-.56.4-.61.89-.1,1-.21,2.1-.34,3.48C12.36,27.26,12.64,27.86,13,27.82Z"/><path class="cls-1" d="M17.55,28.06c.85.15,1.75.36,2.75.63.5.13.78-.37.59-1.08-.37-1.4-.69-2.59-1-3.62a1.64,1.64,0,0,0-1-1.1c-.83-.22-1.54-.38-2.18-.5-.31-.06-.52.25-.47.73.12,1,.25,2.11.4,3.49C16.72,27.3,17.13,28,17.55,28.06Z"/><path class="cls-1" d="M9.87,11.18c.82.21,1.53.38,2.17.5.32.06.52-.25.46-.73-.11-1-.24-2.11-.39-3.49-.07-.69-.47-1.38-.9-1.45-.85-.15-1.76-.36-2.75-.63-.5-.14-.78.37-.59,1.07.37,1.41.69,2.6,1,3.63A1.67,1.67,0,0,0,9.87,11.18Z"/><path class="cls-1" d="M3.83,9.62l3.65,1c.51.14.78-.13.65-.65-.29-1-.63-2.23-1-3.64A2.58,2.58,0,0,0,5.73,4.67c-1.16-.36-2.45-.78-3.91-1.26-.73-.25-1.16.18-.92.91.49,1.46.91,2.75,1.27,3.91A2.58,2.58,0,0,0,3.83,9.62Z"/><path class="cls-1" d="M5,18.83l3.49-.34c.48,0,.85-.33.88-.61a11.92,11.92,0,0,0,0-1.69c0-.28-.4-.56-.89-.61L5,15.25c-.69-.07-1.29.21-1.26.61a13.29,13.29,0,0,1,0,2.36C3.73,18.62,4.32,18.9,5,18.83Z"/><path class="cls-1" d="M1.84,30.68c1.46-.49,2.74-.91,3.91-1.28a2.55,2.55,0,0,0,1.38-1.66c.38-1.41.72-2.6,1-3.64.14-.51-.13-.79-.65-.65-1,.29-2.23.63-3.64,1a2.58,2.58,0,0,0-1.66,1.39C1.82,27,1.4,28.3.92,29.76.67,30.49,1.1,30.92,1.84,30.68Z"/><path class="cls-1" d="M4,23.71l3.62-1a1.65,1.65,0,0,0,1.1-1c.22-.82.38-1.53.5-2.17.06-.32-.25-.52-.73-.47L5,19.47c-.69.07-1.37.47-1.45.9-.15.85-.36,1.76-.63,2.75C2.75,23.63,3.26,23.9,4,23.71Z"/><path class="cls-1" d="M101.05,34.27v3h3.53v-3h1v7.29h-1V38.14h-3.53v3.42h-1V34.27Z"/><path class="cls-1" d="M110.76,38.14h-2.82v2.63h3.15v.79H107V34.27h3.94v.79h-3v2.3h2.82Z"/><path class="cls-1" d="M113.33,39.27l-.76,2.29h-1l2.49-7.29h1.12l2.49,7.29h-1l-.78-2.29Zm2.4-.74-.72-2.1c-.17-.47-.27-.9-.38-1.32h0c-.11.42-.22.87-.37,1.31l-.71,2.11Z"/><path class="cls-1" d="M118.59,34.27h1v6.5h3.11v.79h-4.07Z"/><path class="cls-1" d="M124.93,35.07h-2.22v-.8h5.4v.8h-2.23v6.49h-.95Z"/><path class="cls-1" d="M129.69,34.27v3h3.53v-3h.95v7.29h-.95V38.14h-3.53v3.42h-.95V34.27Z"/><path class="cls-1" d="M143.32,41.23a6.35,6.35,0,0,1-2.24.4A3.41,3.41,0,0,1,137.34,38a3.65,3.65,0,0,1,3.94-3.76,4.63,4.63,0,0,1,1.83.33l-.24.77a3.66,3.66,0,0,0-1.61-.31,2.73,2.73,0,0,0-2.93,2.93,2.67,2.67,0,0,0,2.81,2.94,3,3,0,0,0,1.26-.2V38.49h-1.47v-.76h2.39Z"/><path class="cls-1" d="M144.59,34.37a10.54,10.54,0,0,1,1.8-.15,3,3,0,0,1,2.11.59,1.87,1.87,0,0,1,.57,1.4,1.91,1.91,0,0,1-1.36,1.85v0a1.81,1.81,0,0,1,1.06,1.47,12.18,12.18,0,0,0,.56,2h-1a8.88,8.88,0,0,1-.47-1.74c-.22-1-.62-1.39-1.47-1.42h-.89v3.16h-.94Zm.94,3.32h1c1,0,1.64-.55,1.64-1.39S147.45,35,146.46,35a4.19,4.19,0,0,0-.93.08Z"/><path class="cls-1" d="M156.47,37.84c0,2.5-1.53,3.84-3.39,3.84s-3.27-1.51-3.27-3.71,1.43-3.83,3.37-3.83S156.47,35.67,156.47,37.84ZM150.8,38c0,1.57.85,3,2.34,3s2.33-1.37,2.33-3c0-1.46-.75-3-2.32-3S150.8,36.36,150.8,38Z"/><path class="cls-1" d="M158.47,34.27V38.6c0,1.62.72,2.31,1.69,2.31s1.78-.71,1.78-2.31V34.27h.95v4.26c0,2.24-1.18,3.15-2.76,3.15s-2.61-.85-2.61-3.12V34.27Z"/><path class="cls-1" d="M164.36,34.36a10.41,10.41,0,0,1,1.8-.14,3,3,0,0,1,2.05.6,2,2,0,0,1,.63,1.53,2.1,2.1,0,0,1-.56,1.55,3,3,0,0,1-2.23.8,3.4,3.4,0,0,1-.75-.06v2.92h-.94Zm.94,3.51a2.83,2.83,0,0,0,.78.08c1.13,0,1.82-.56,1.82-1.55S167.21,35,166.18,35a4,4,0,0,0-.88.08Z"/><path class="cls-1" d="M82.59,27.36l-.93-1.07a13.1,13.1,0,0,0,3.22-8.72,13.1,13.1,0,0,0-4-9.54,14,14,0,0,0-9.72-4,13.81,13.81,0,0,0-10.74,5,13,13,0,0,0-3,8.47,13.12,13.12,0,0,0,2.77,8.15A13.67,13.67,0,0,0,62.41,28,14.52,14.52,0,0,0,64,29a13.71,13.71,0,0,0,13.13.69L73.65,25.8a8,8,0,0,1-2.49.38c-4.93,0-8.1-3.82-8.1-8.61s3.31-8.64,8.1-8.64,8.07,3.89,8.07,8.64a9.26,9.26,0,0,1-1.17,4.59L76.2,20,73,22.8l2.62,3,3.42,3.93,3.37,3.86,3.18-2.78Z"/><path class="cls-1" d="M171.31,13.15v.22h-.94v2.48h-.26V13.37h-.94v-.22Z"/><path class="cls-1" d="M171.93,13.15l.93,2.37.93-2.37h.38v2.7h-.26V13.52h0L173,15.85h-.24l-.92-2.33h0v2.33h-.26v-2.7Z"/></g></svg>