<svg xmlns="http://www.w3.org/2000/svg" viewBox="0 0 40 40"><defs><style>.cls-1{fill:#fff;}</style></defs><title>ensocare-icon-white</title><g id="CQ_Secret" data-name="CQ Secret"><path class="cls-1" d="M38.66,17c0,.33,0,.74-.22.7-.32-1.11,0-1,.15-1.32-.39-.79-.81-.58-1.27-1-.16-1.74-.46-1.87-.62-3.45l-.36.29c-.14-1.1-.87-.86-1.21-1.94,0-.12.38.18.65.42-.64-.77-.21-1-.93-1.68l.89.32c-.48-.65-1.36-1.45-.77-1.41-1-.6-2.25-1.8-3.53-2.63-.33-.24-.66-.48-1-.7l.18-.16a3.21,3.21,0,0,1-.9-.31A19,19,0,0,0,13.16,2.24,20.83,20.83,0,0,0,5,8.07C-.9,14-.08,23.32,3.77,30.05A18.28,18.28,0,0,0,17.82,38.8,21.77,21.77,0,0,0,32.7,34.29c-1.63,1.14-4.7,3.05-6.65,3.25.19-.12.36-.26.54-.39-.43,0-1.78.37-2.49.45a3.68,3.68,0,0,1,1-.26l-.7.11a21.64,21.64,0,0,0,4.45-1.89c1.35-.82,2.2-1.63,1.81-1.69S28.38,35,26.24,35.92l.29-.21c-.8.21-1.73.59-2.69.79a17.6,17.6,0,0,0,6.66-3.83c-.59.34-.94.49-1.74,1a14.12,14.12,0,0,1-3.11,1.55A7.84,7.84,0,0,1,23,36c2.51-.91,4.68-1.54,6.79-3.36.59-.45,1.3-1.16,1.57-1.06-.31.39.1.27-.13.63.65-.88-.45-.64.63-1.69l.46.68c-.21-1,1.39-1.37,1.56-2.63.46-.19.29.59-.23,1.3.72-.72.31-1.09.74-1.73.07.32.14.64.19,1-.08-1.05.87-1.28,1.29-1.66-.13-.12-.78.07-.3-.88.24-.4.32-.12.44-.18A1.31,1.31,0,0,1,36,25.14c.26-.06.16.54.36.67a4.63,4.63,0,0,1,.52-1.3c.06-1-.33,0-.42-.64.37-1.19.7-.34,1.14-.34a19.51,19.51,0,0,1-.92,3.61c.1.4-.57,1.65-.75,2.29a15.2,15.2,0,0,0,1.93-5.59v0c0,.27-.07.54-.12.8l.12-.73a19.25,19.25,0,0,1-.35,2.88A13.66,13.66,0,0,0,38,24.57c.24.21.81-1.45.79-.18A13.07,13.07,0,0,0,38.66,17ZM25,2.66l-.66-.18h0Zm.33.2c-.17,0-.35,0-.52,0a.69.69,0,0,1-.46-.35C24.69,2.64,25,2.74,25.34,2.86ZM14,2.73A18.3,18.3,0,0,1,20,1.87a1.11,1.11,0,0,1-.43.28A19.7,19.7,0,0,0,9.45,4.58C11.06,3.11,12.59,3.21,14,2.73ZM12,4.55l-.76.29a17.32,17.32,0,0,1,2.41-1.07A17.69,17.69,0,0,0,12,4.55Zm0,4.3a.41.41,0,0,0,0,.09,3.34,3.34,0,0,0-.28.21l-.79.48c.07-.09.15-.17.22-.25.23-.16.51-.35.83-.53Zm-1.36.93a7.91,7.91,0,0,0-.68.44v0l0,0a5,5,0,0,1,.58-.45Zm-2.38-3c-.23.2-.44.42-.66.65a18.53,18.53,0,0,1,2.94-2A14.26,14.26,0,0,0,8.85,6.78c-.54.4-1.06.84-1.56,1.29C6.49,8.74,5.76,9.5,5.21,10A33.69,33.69,0,0,1,7.64,7.4a18.31,18.31,0,0,0-4.49,5.51A15.88,15.88,0,0,1,8.3,6.75Zm-.07.64c-.2.2-.4.4-.58.62s-.49.58-.71.87l-.8.8A13.13,13.13,0,0,1,8.23,7.39ZM5,30.68c-.15-.18-.26-.39-.39-.57a1.19,1.19,0,0,1-.31-.48,9.77,9.77,0,0,1-1.2-2.49,18.91,18.91,0,0,1-.93-7.67c.09-.55.14-.4.15-.11l.06-.45a11.64,11.64,0,0,1,.37-2.73A17.17,17.17,0,0,1,3.88,13.3l.19-.4L4,13a16.73,16.73,0,0,1,2.3-3.27c-.2.31-.39.63-.57,1A18.22,18.22,0,0,0,3,16.18a7.55,7.55,0,0,1,.2-1,18,18,0,0,0-.84,3.77,7.62,7.62,0,0,0,0,1.17c0-.14-.06-.48-.09-.72A17.94,17.94,0,0,0,5,30.6a1.89,1.89,0,0,0-.41-.45c.11.17.21.36.34.53.35.43.7.88,1,1.31C5.64,31.58,5.31,31.12,5,30.68Zm16.7,5.51a6.76,6.76,0,0,1-1.28,0c.5,0,1-.1,1.6-.13h.1A2,2,0,0,1,21.67,36.19ZM33,24.6l.14.1c-.71.87-.91,2-1.74,3l.53-.39c-.17.88-.65,1.13-1,1.83h-.65c-.46.71.07.57-.22,1.17-.77.33-1.91,1.56-2.28,1.7-.34-.05.11-.43.14-.6-.76.63-.44,1.06-1.61,1.6l-.07-.1c-2.51,2-6.81,2.23-10.31,1.47.23.11.14.18.2.3-3.17-.74-6.1-2.9-8.43-5l-.13-.2c-.1-.09-.28-.31-.48-.5,0-.17-.09-.34-.14-.51a13.65,13.65,0,0,1-1.32-2.92h0a15.49,15.49,0,0,1-.75-4.91c.06-.43.07-.87.16-1.3a.32.32,0,0,1-.2.08,2.68,2.68,0,0,1,0,.57c0-.32,0-.61-.07-.84.2-.38.3-.83.49-1.29a13.34,13.34,0,0,1,.71-2.22h0c.16-.39.33-.78.53-1.16,0-.11-.09-.06-.14-.07l.07-.11.08,0,0-.12c.26-.39.57-.75.84-1.12a16.39,16.39,0,0,1,1.17-1.47h.09l-.06,0c.22-.25.45-.49.69-.73s.29-.36.43-.56a1.8,1.8,0,0,0,.37-.15v0l-.17.11a1.77,1.77,0,0,1-.37.56c-.38.4-.74.8-1.07,1.2a14.52,14.52,0,0,1,3.57-3.06.88.88,0,0,0,0,.55c.87-.57,1-.95,1-1.26A17.31,17.31,0,0,1,15,7.42a.91.91,0,0,1,.29-.18c.52-.11,1-.25,1.52-.32a16.31,16.31,0,0,1,4.24-.3c1.15,0-2.25-1.07-2.07-1.15a4,4,0,0,1,1.92-.39,12.58,12.58,0,0,0,2,.57V5.28l.31.06c1.21.61,3.93,2,4,3.31.89.12,0-.13.17-.44,1.69.45,1.35,1.21,1.81,1.92.89.5-.44-.65.17-.55.9,1.3,1.38.42,2.4,2.16,0,.13-.11.11-.21,0a11.3,11.3,0,0,1,2.48,4.72C34.44,18.79,34.3,22.31,33,24.6ZM37.13,11l-1-1.17.06.21C36.61,10.28,36.81,10.77,37.13,11Zm-3.8,21.08A16.43,16.43,0,0,0,35,29.46l-.15.13A17.1,17.1,0,0,1,33.33,32.11Zm2.52-21.92c.08.29.2.6.09.62C36.2,11,36.31,11,35.85,10.19Zm.09.62-.16-.14.12.14Zm-4.45.89c-.13-.12-.28-.28-.41-.3A2.67,2.67,0,0,1,31.49,11.7Zm1.89,21.13-1,1.13C32.7,33.63,33,33.23,33.38,32.83ZM19.39,7A14.29,14.29,0,0,1,23,7.44c-.45-.15-.85-.38-1.22-.53C21.23,7,20.36,6.94,19.39,7Zm0,0c-.37,0-.75,0-1.13,0ZM36.82,27.81a18.61,18.61,0,0,0,.88-3.08A20.44,20.44,0,0,1,36.82,27.81ZM29.56,11.57a9.76,9.76,0,0,1,.71.88A3.37,3.37,0,0,1,30.1,12,5.56,5.56,0,0,1,29.56,11.57ZM26.22,8.79a10.33,10.33,0,0,1,1.29.86,9.51,9.51,0,0,0-1.21-1S26.33,8.8,26.22,8.79ZM15.59,7.46A14.35,14.35,0,0,1,18.26,7a10.72,10.72,0,0,0-2.68.45Z"/></g></svg>