<svg xmlns="http://www.w3.org/2000/svg" viewBox="0 0 182 45"><defs><style>.cls-1{fill:#fff;}</style></defs><title>ensocare-logo-white</title><g id="CQ_Secret" data-name="CQ Secret"><path class="cls-1" d="M.41,7.4H18.67V9H2.27v6.67H17.42v1.59H2.27v7.62H19.45v1.59H.41Z"/><path class="cls-1" d="M43.78,7.4V26.46h-1.7L25.74,9.83V26.46H24V7.4h1.7L42.08,24.11V7.4Z"/><path class="cls-1" d="M49.43,20.93c.65,1.54,1.67,3.32,5.16,4.05a15.82,15.82,0,0,0,3.16.3c4.45,0,7.48-1.76,7.48-4.38,0-2.46-2.41-3-6.51-3.51-1.19-.14-2.38-.3-3.54-.46A14,14,0,0,1,51.29,16a3.85,3.85,0,0,1-2.38-3.59c0-2.86,2.79-5.54,8.78-5.54,3.65,0,6.73,1.06,9,3.76l-1.73.94c-.59-.78-2.29-3.05-7.37-3.05-4.05,0-6.7,1.57-6.7,3.81,0,1.62,1.54,2.21,2.73,2.46.92.19,5.48.78,6.53.94a19.11,19.11,0,0,1,4.27,1,4.34,4.34,0,0,1,2.81,4.05,5.17,5.17,0,0,1-.84,2.76C65.44,25,63.2,27,57.91,27c-3.4,0-5.19-.49-6.7-1.27a7.7,7.7,0,0,1-3.78-4Z"/><path class="cls-1" d="M92.12,15.08c0,.19,0,.42-.12.39-.19-.61,0-.58.08-.73-.22-.44-.46-.33-.71-.55-.09-1-.26-1-.34-1.92l-.21.16c-.08-.62-.48-.49-.68-1.09,0-.06.22.1.37.24-.36-.44-.12-.55-.52-.94l.5.18c-.27-.37-.77-.81-.43-.79-.56-.33-1.26-1-2-1.47-.18-.14-.36-.27-.55-.39l.1-.09a1.84,1.84,0,0,1-.5-.17,10.61,10.61,0,0,0-9.26-1,11.64,11.64,0,0,0-4.54,3.25c-3.31,3.3-2.85,8.52-.7,12.28a10.21,10.21,0,0,0,7.85,4.89,12.12,12.12,0,0,0,8.31-2.52,10.44,10.44,0,0,1-3.71,1.82l.29-.22c-.24,0-1,.2-1.38.25a2.21,2.21,0,0,1,.55-.15l-.4.07a12.48,12.48,0,0,0,2.49-1.06c.75-.46,1.23-.91,1-.95s-1.27.66-2.46,1.15l.16-.12c-.45.12-1,.33-1.5.44a9.73,9.73,0,0,0,3.72-2.13c-.33.19-.52.27-1,.54a7.83,7.83,0,0,1-1.74.86,4.34,4.34,0,0,1-1.47.44,10.92,10.92,0,0,0,3.79-1.87c.33-.25.73-.65.88-.6-.17.22.06.16-.07.36.36-.5-.25-.36.35-1l.26.38c-.12-.55.77-.76.87-1.46.26-.11.16.32-.13.72.4-.4.17-.61.42-1,0,.18.07.36.1.55,0-.58.49-.71.72-.92-.07-.07-.44,0-.17-.49.13-.23.18-.07.25-.1a.77.77,0,0,1,0-.7c.15,0,.09.3.21.37a2.4,2.4,0,0,1,.29-.72c0-.55-.19,0-.24-.36.21-.66.39-.19.64-.19a11.72,11.72,0,0,1-.51,2c0,.22-.33.92-.42,1.28a8.5,8.5,0,0,0,1.07-3.13v0a3,3,0,0,1-.07.45c0-.13,0-.27.07-.41a10.16,10.16,0,0,1-.19,1.61,7.89,7.89,0,0,0,.28-1.26c.14.12.46-.81.44-.1A7.35,7.35,0,0,0,92.12,15.08Zm-7.63-8L84.12,7h0Zm.19.11-.3,0a.38.38,0,0,1-.25-.2Zm-6.37-.07a10.68,10.68,0,0,1,3.4-.48.67.67,0,0,1-.24.16A10.89,10.89,0,0,0,75.8,8.18,5.35,5.35,0,0,1,78.31,7.14Zm-1.09,1-.42.16a9,9,0,0,1,1.34-.6A8.59,8.59,0,0,0,77.22,8.16Zm0,2.4,0,0-.15.12-.45.26.13-.14a5.39,5.39,0,0,1,.46-.29Zm-.76.52-.38.24h0a2.85,2.85,0,0,1,.33-.25Zm-1.33-1.7c-.13.12-.25.24-.37.37a9.85,9.85,0,0,1,1.64-1.11,8.9,8.9,0,0,0-1,.76,10.4,10.4,0,0,0-.87.72c-.45.38-.86.8-1.17,1.08.49-.58.93-1,1.36-1.45a10.36,10.36,0,0,0-2.51,3.08A8.86,8.86,0,0,1,75.16,9.38Zm0,.36c-.11.12-.22.23-.32.35s-.27.32-.4.49L74,11A7.75,7.75,0,0,1,75.12,9.74Zm-1.82,13a3.62,3.62,0,0,1-.22-.32.57.57,0,0,1-.17-.26,5.48,5.48,0,0,1-.67-1.4,10.43,10.43,0,0,1-.52-4.28c0-.31.08-.22.08-.06l0-.25a6.18,6.18,0,0,1,.2-1.53,11.17,11.17,0,0,1,.65-1.6,2.4,2.4,0,0,1,.11-.23.3.3,0,0,0,0,.08,9.43,9.43,0,0,1,1.29-1.83c-.11.18-.22.35-.32.53a10.43,10.43,0,0,0-1.54,3.05,5.26,5.26,0,0,1,.11-.58,9.46,9.46,0,0,0-.46,2.11,4.7,4.7,0,0,0,0,.65c0-.07,0-.26,0-.4a10.07,10.07,0,0,0,1.54,6.28,1.18,1.18,0,0,0-.23-.25c.06.09.12.2.19.29l.58.73A8.45,8.45,0,0,1,73.3,22.75Zm9.33,3.08a3.43,3.43,0,0,1-.72,0c.28,0,.57-.06.9-.07h0A1,1,0,0,1,82.63,25.83ZM89,19.36l.07.05c-.39.49-.51,1.14-1,1.69l.29-.22c-.09.49-.36.63-.57,1H87.4c-.25.4,0,.32-.12.66-.43.18-1.06.87-1.27,1s.06-.24.08-.34c-.43.35-.25.59-.9.9l0-.06c-1.4,1.09-3.8,1.25-5.75.82.12.06.08.1.11.17a11.63,11.63,0,0,1-4.71-2.77l-.07-.12c-.06-.05-.16-.17-.27-.27s0-.19-.08-.29a7.2,7.2,0,0,1-.73-1.63h0a8.56,8.56,0,0,1-.42-2.74c0-.25,0-.49.09-.73a.17.17,0,0,1-.11,0,1.71,1.71,0,0,1,0,.32c0-.18,0-.34,0-.47s.17-.46.28-.72a7.75,7.75,0,0,1,.39-1.24h0c.09-.22.19-.44.3-.65s-.05,0-.08,0l0-.06,0,0a.19.19,0,0,1,0-.07c.14-.22.32-.41.47-.62a8.67,8.67,0,0,1,.65-.82h0l0,0,.38-.4c.08-.11.17-.2.24-.31a1,1,0,0,0,.21-.09h0L76,11.4a1.23,1.23,0,0,1-.2.32q-.33.33-.6.66a8.25,8.25,0,0,1,2-1.71.51.51,0,0,0,0,.32c.48-.33.57-.54.55-.71a8.46,8.46,0,0,1,1.21-.52.64.64,0,0,1,.16-.1c.29-.06.57-.14.85-.18a9.84,9.84,0,0,1,2.37-.17c.64,0-1.26-.59-1.16-.64a2.24,2.24,0,0,1,1.07-.22,6.17,6.17,0,0,0,1.12.32v-.2l.17,0c.67.34,2.19,1.12,2.23,1.85.5.07,0-.07.1-.25.94.25.75.68,1,1.07.49.28-.25-.36.1-.3.5.73.77.23,1.34,1.21,0,.07-.07.05-.12,0a6.4,6.4,0,0,1,1.38,2.63A7.58,7.58,0,0,1,89,19.36Zm2.31-7.58-.53-.66,0,.12C91,11.36,91.08,11.63,91.26,11.78ZM89.14,23.55a8.22,8.22,0,0,0,.94-1.48l-.09.08A9.17,9.17,0,0,1,89.14,23.55Zm1.41-12.24c0,.16.11.33,0,.34C90.74,11.77,90.81,11.78,90.55,11.31Zm0,.34-.09-.07.07.08Zm-2.49.5a.48.48,0,0,0-.23-.16A1.19,1.19,0,0,1,88.11,12.15ZM89.17,24l-.57.64C88.79,24.4,89,24.18,89.17,24ZM81.35,9.5a7.57,7.57,0,0,1,2,.27c-.24-.08-.47-.21-.68-.3S81.89,9.49,81.35,9.5Zm0,0-.63,0Zm9.74,11.65a10.37,10.37,0,0,0,.49-1.72A11.27,11.27,0,0,1,91.09,21.15Zm-4-9.07a6,6,0,0,1,.39.49,1.15,1.15,0,0,1-.09-.26A2.37,2.37,0,0,1,87,12.08Zm-1.87-1.55a5.63,5.63,0,0,1,.72.48,5.19,5.19,0,0,0-.68-.56S85.23,10.53,85.17,10.53Zm-5.94-.75a8.45,8.45,0,0,1,1.49-.26,6.26,6.26,0,0,0-1.49.26Z"/><path class="cls-1" d="M142.21,26.25a21.09,21.09,0,0,1-2.28.16c-2.13,0-2.81-.88-3.12-2.89a15.2,15.2,0,0,1-10,3.23c-3.46,0-4.91-.76-5.48-1.07a5.72,5.72,0,0,1-2.92-5,5.66,5.66,0,0,1,2.28-4.6c2.7-1.94,8.74-2,16.08-2.09,0-2.24,0-4.71-7.76-4.71-6,0-7,1.59-7.75,3.84L118.63,13a7.44,7.44,0,0,1,1-2.43c2-3.08,5.71-3.58,9.28-3.58,2.4,0,5.63.27,7.68,1.45,2.4,1.37,2.51,4.07,2.51,5.13v8c0,2.05.42,2.92,3.12,2.77Zm-19.51-8.4a3.44,3.44,0,0,0-1.59,2.85c0,3.46,4.29,3.8,6,3.8,3.81,0,7.11-1.4,8.48-3,1.18-1.37,1.26-3.12,1.22-5.44C131.11,16.1,125,16.18,122.7,17.85Z"/><path class="cls-1" d="M147.38,10.55a8,8,0,0,1,1.29-1.45c2.71-2.24,6-2.2,8.1-2.16V9.56a17,17,0,0,0-1.93-.15,9.29,9.29,0,0,0-4.49,1.1,5.67,5.67,0,0,0-2.21,2.24,7,7,0,0,0-.76,3.35V26.29h-2.47V7.51h2.47Z"/><path class="cls-1" d="M180.36,21.12a13.37,13.37,0,0,1-4,3.88,13.89,13.89,0,0,1-6.77,1.75c-6.47,0-11.3-4.34-11.3-10.31a9.29,9.29,0,0,1,2.55-6.5,11.77,11.77,0,0,1,8.14-3,11.91,11.91,0,0,1,8.4,3.23,10.33,10.33,0,0,1,3,7H160.93c.3,5,4.52,7.45,8.9,7.45a10.08,10.08,0,0,0,1.86-.15,9.1,9.1,0,0,0,5.25-2.78,8.63,8.63,0,0,0,1.41-1.94Zm-3-6.08a7,7,0,0,0-3.16-4.57A9.13,9.13,0,0,0,168.88,9a7.78,7.78,0,0,0-6.16,2.55A6.82,6.82,0,0,0,161,15Z"/><path class="cls-1" d="M112.73,11.56a7.77,7.77,0,1,0,.3,10.11l1.77,1.46a10.13,10.13,0,1,1-.26-13Z"/><path class="cls-1" d="M180.38,7a1.22,1.22,0,1,1,0,2.43,1.22,1.22,0,1,1,0-2.43Zm0,.22a1,1,0,1,0,1,1,1,1,0,0,0-1-1Zm-.21,1.66h-.24V7.58a2.76,2.76,0,0,1,.44,0,.6.6,0,0,1,.4.1.36.36,0,0,1,.13.28.32.32,0,0,1-.25.29v0c.11,0,.17.14.21.31a1,1,0,0,0,.1.31h-.25a1.47,1.47,0,0,1-.1-.33c0-.14-.12-.2-.29-.2h-.15Zm0-.71h.16c.16,0,.32-.06.32-.2s-.08-.21-.3-.21h-.18Z"/><rect class="cls-1" x="10.59" y="35.57" width="11.49" height="0.16"/><rect class="cls-1" x="158.69" y="35.57" width="11.49" height="0.16"/><path class="cls-1" d="M32.16,37A3.51,3.51,0,0,1,29,38.76a3.19,3.19,0,0,1-3.44-3.2A3.25,3.25,0,0,1,29,32.38a3.75,3.75,0,0,1,1.8.44A3.05,3.05,0,0,1,32,34l-.51.28a3.42,3.42,0,0,0-.34-.5,2.76,2.76,0,0,0-2.15-.9,2.66,2.66,0,1,0,0,5.31,2.88,2.88,0,0,0,2.63-1.5Z"/><path class="cls-1" d="M38,38.59a4.55,4.55,0,0,1-.52,0c-.49,0-.65-.2-.72-.65a3.45,3.45,0,0,1-2.28.72,2.61,2.61,0,0,1-1.24-.23,1.3,1.3,0,0,1-.67-1.13,1.28,1.28,0,0,1,.52-1c.61-.43,2-.45,3.67-.47,0-.5,0-1.06-1.77-1.06-1.36,0-1.6.36-1.77.87l-.6,0a1.85,1.85,0,0,1,.23-.55,2.35,2.35,0,0,1,2.11-.8,3.83,3.83,0,0,1,1.75.33,1.23,1.23,0,0,1,.57,1.15v1.8c0,.46.1.66.72.63ZM33.54,36.7a.79.79,0,0,0-.37.65c0,.77,1,.85,1.37.85a2.79,2.79,0,0,0,1.94-.67,1.67,1.67,0,0,0,.27-1.22A7.4,7.4,0,0,0,33.54,36.7Z"/><path class="cls-1" d="M39.16,35.06a1.94,1.94,0,0,1,.3-.32,2.65,2.65,0,0,1,1.85-.49v.59a3.64,3.64,0,0,0-.45,0,2.11,2.11,0,0,0-1,.25,1.27,1.27,0,0,0-.5.5,1.53,1.53,0,0,0-.18.75V38.6H38.6V34.38h.56Z"/><path class="cls-1" d="M46.68,37.44a2.93,2.93,0,0,1-.91.87,3.23,3.23,0,0,1-1.54.39,2.38,2.38,0,0,1-2.58-2.31,2.07,2.07,0,0,1,.58-1.46A2.86,2.86,0,0,1,46,35a2.29,2.29,0,0,1,.68,1.57H42.25a2.08,2.08,0,0,0,2.45,1.64,2.08,2.08,0,0,0,1.2-.62,2,2,0,0,0,.32-.44ZM46,36.07a1.55,1.55,0,0,0-.72-1,2.05,2.05,0,0,0-1.21-.34,1.79,1.79,0,0,0-1.4.58,1.42,1.42,0,0,0-.39.78Z"/><path class="cls-1" d="M57.27,37a3.38,3.38,0,0,1-.4.58,3.53,3.53,0,0,1-2.8,1.2,3.19,3.19,0,0,1-3.44-3.2,3.25,3.25,0,0,1,3.44-3.18,3.79,3.79,0,0,1,1.81.44A3.19,3.19,0,0,1,57.12,34l-.51.28a4.71,4.71,0,0,0-.35-.5,2.74,2.74,0,0,0-2.15-.9,2.66,2.66,0,1,0,0,5.31,2.86,2.86,0,0,0,2.63-1.5Z"/><path class="cls-1" d="M63.07,36.53c0,1.26-1.11,2.19-2.7,2.19-1.75,0-2.68-1-2.68-2.22,0-1.33,1.08-2.28,2.8-2.26A2.34,2.34,0,0,1,63.07,36.53Zm-4.73,0c0,1.15.9,1.74,2,1.74s2.07-.67,2.07-1.75a1.86,1.86,0,0,0-2.09-1.79A1.84,1.84,0,0,0,58.34,36.5Z"/><path class="cls-1" d="M69.21,36.53c0,1.26-1.11,2.19-2.7,2.19-1.76,0-2.68-1-2.68-2.22,0-1.33,1.08-2.28,2.8-2.26A2.34,2.34,0,0,1,69.21,36.53Zm-4.73,0c0,1.15.9,1.74,2,1.74s2.07-.67,2.07-1.75a1.87,1.87,0,0,0-2.09-1.79A1.84,1.84,0,0,0,64.48,36.5Z"/><path class="cls-1" d="M70.77,35.06a1.94,1.94,0,0,1,.3-.32,2.64,2.64,0,0,1,1.84-.49v.59a3.37,3.37,0,0,0-.44,0,2.07,2.07,0,0,0-1,.25,1.36,1.36,0,0,0-.51.5,1.63,1.63,0,0,0-.17.75V38.6h-.56V34.38h.56Z"/><path class="cls-1" d="M77.78,32.57h.58v6h-.58V38a1.84,1.84,0,0,1-.65.51,3.2,3.2,0,0,1-1.3.25,2.34,2.34,0,0,1-2.6-2.24,2.39,2.39,0,0,1,2.63-2.22,2.3,2.3,0,0,1,1.92.81Zm-.29,5a1.91,1.91,0,0,0,.29-1.13,1.45,1.45,0,0,0-.56-1.31,2.45,2.45,0,0,0-1.44-.41,1.76,1.76,0,1,0,.14,3.5A1.93,1.93,0,0,0,77.49,37.58Z"/><path class="cls-1" d="M79.6,32.82h.58v.81H79.6Zm0,1.55h.57V38.6H79.6Z"/><path class="cls-1" d="M86.32,38.6h-.57V36.3c0-.58,0-1.5-1.83-1.5a2.28,2.28,0,0,0-1.63.55,1,1,0,0,0-.3.88V38.6h-.58V34.38H82V35a2.52,2.52,0,0,1,2-.71,3.34,3.34,0,0,1,1.51.33,1.69,1.69,0,0,1,.82,1.68Z"/><path class="cls-1" d="M92.71,38.59a4.38,4.38,0,0,1-.52,0c-.48,0-.64-.2-.71-.65a3.5,3.5,0,0,1-2.28.72A2.63,2.63,0,0,1,88,38.47a1.29,1.29,0,0,1-.15-2.17c.62-.43,2-.45,3.67-.47,0-.5,0-1.06-1.77-1.06-1.36,0-1.59.36-1.77.87l-.59,0a1.57,1.57,0,0,1,.22-.55,2.36,2.36,0,0,1,2.12-.8,3.85,3.85,0,0,1,1.75.33A1.26,1.26,0,0,1,92,35.74v1.8c0,.46.1.66.71.63ZM88.26,36.7a.77.77,0,0,0-.36.65c0,.77,1,.85,1.37.85a2.74,2.74,0,0,0,1.93-.67,1.67,1.67,0,0,0,.28-1.22A7.48,7.48,0,0,0,88.26,36.7Z"/><path class="cls-1" d="M94.18,32.67v1.71h1.21v.44H94.18v2c0,.82,0,1.38.83,1.38a2.43,2.43,0,0,0,.38,0v.46a3.55,3.55,0,0,1-.57.06,1.12,1.12,0,0,1-1-.43,2.51,2.51,0,0,1-.21-1.33V34.82h-.81v-.44h.81V32.94Z"/><path class="cls-1" d="M96,32.82h.57v.81H96Zm0,1.55h.56V38.6H96Z"/><path class="cls-1" d="M103,36.53c0,1.26-1.11,2.19-2.7,2.19-1.75,0-2.68-1-2.68-2.22,0-1.33,1.08-2.28,2.8-2.26A2.34,2.34,0,0,1,103,36.53Zm-4.73,0c0,1.15.9,1.74,2,1.74s2.07-.67,2.07-1.75a1.86,1.86,0,0,0-2.09-1.79A1.84,1.84,0,0,0,98.25,36.5Z"/><path class="cls-1" d="M108.9,38.6h-.58V36.3c0-.58,0-1.5-1.83-1.5a2.29,2.29,0,0,0-1.63.55,1.06,1.06,0,0,0-.3.88V38.6H104V34.38h.58V35a2.53,2.53,0,0,1,2-.71,3.31,3.31,0,0,1,1.51.33,1.7,1.7,0,0,1,.83,1.68Z"/><path class="cls-1" d="M113.67,36.85a2,2,0,0,0,1.66,1.28,4.87,4.87,0,0,0,1,.1c1.43,0,2.4-.56,2.4-1.39s-.77-.94-2.09-1.11l-1.13-.14a4.49,4.49,0,0,1-1.25-.3,1.2,1.2,0,0,1-.76-1.13c0-.91.89-1.75,2.82-1.75a3.53,3.53,0,0,1,2.87,1.18l-.55.3a2.66,2.66,0,0,0-2.37-1c-1.3,0-2.15.49-2.15,1.2,0,.51.5.7.88.78s1.76.25,2.1.3a5.56,5.56,0,0,1,1.36.32,1.37,1.37,0,0,1,.91,1.28,1.69,1.69,0,0,1-.27.87,3,3,0,0,1-2.72,1.08,4.38,4.38,0,0,1-2.15-.41A2.43,2.43,0,0,1,113,37.09Z"/><path class="cls-1" d="M125.55,36.53c0,1.26-1.11,2.19-2.71,2.19-1.75,0-2.68-1-2.68-2.22,0-1.33,1.09-2.28,2.81-2.26A2.34,2.34,0,0,1,125.55,36.53Zm-4.73,0c0,1.15.9,1.74,2,1.74s2.07-.67,2.07-1.75a1.87,1.87,0,0,0-2.09-1.79A1.84,1.84,0,0,0,120.82,36.5Z"/><path class="cls-1" d="M126.55,32.57h.58v6h-.58Z"/><path class="cls-1" d="M132.69,34.37h.57V38.6h-.57V38a2.9,2.9,0,0,1-2.11.72,3.83,3.83,0,0,1-1.15-.17,1.74,1.74,0,0,1-1.09-1.9V34.37h.57v2.32a1.54,1.54,0,0,0,.28,1.05,1.81,1.81,0,0,0,1.39.45,3.14,3.14,0,0,0,1.7-.44.92.92,0,0,0,.41-.86Z"/><path class="cls-1" d="M135.34,32.67v1.71h1.21v.44h-1.21v2c0,.82,0,1.38.83,1.38a2.43,2.43,0,0,0,.38,0v.46a3.55,3.55,0,0,1-.57.06,1.12,1.12,0,0,1-1-.43,2.51,2.51,0,0,1-.21-1.33V34.82H134v-.44h.81V32.94Z"/><path class="cls-1" d="M137.2,32.82h.57v.81h-.57Zm0,1.55h.56V38.6h-.56Z"/><path class="cls-1" d="M144.14,36.53c0,1.26-1.11,2.19-2.7,2.19-1.75,0-2.68-1-2.68-2.22,0-1.33,1.08-2.28,2.8-2.26A2.34,2.34,0,0,1,144.14,36.53Zm-4.73,0c0,1.15.9,1.74,2,1.74s2.07-.67,2.07-1.75a1.86,1.86,0,0,0-2.09-1.79A1.84,1.84,0,0,0,139.41,36.5Z"/><path class="cls-1" d="M150.05,38.6h-.57V36.3c0-.58,0-1.5-1.83-1.5a2.28,2.28,0,0,0-1.63.55,1,1,0,0,0-.3.88V38.6h-.58V34.38h.58V35a2.53,2.53,0,0,1,2-.71,3.31,3.31,0,0,1,1.51.33,1.67,1.67,0,0,1,.82,1.68Z"/><path class="cls-1" d="M151.54,37.42a1,1,0,0,0,.54.53,3.49,3.49,0,0,0,1.38.25,2.25,2.25,0,0,0,1.56-.45.65.65,0,0,0,.16-.4A.49.49,0,0,0,155,37c-.17-.16-.43-.2-.95-.23-.33,0-.65,0-1-.06a4.32,4.32,0,0,1-1.29-.16,1,1,0,0,1-.69-.95,1.29,1.29,0,0,1,.14-.57,1.43,1.43,0,0,1,.83-.61,4.73,4.73,0,0,1,1.23-.15,4,4,0,0,1,1.71.31,1.42,1.42,0,0,1,.65.68l-.63.13a.63.63,0,0,0-.29-.32,3.16,3.16,0,0,0-1.47-.3A2.61,2.61,0,0,0,152,35a.59.59,0,0,0-.32.52.51.51,0,0,0,.13.34c.17.17.39.19,1,.23s.85,0,1.28.07a3.59,3.59,0,0,1,.93.16,1,1,0,0,1,.76,1,1.16,1.16,0,0,1-.52.95,3,3,0,0,1-1.73.41c-1,0-2.28-.17-2.59-1.13Z"/></g></svg>